<?xml version="1.0" encoding="UTF-8"?>
<svg width="150" height="150" viewBox="0 0 150 150" xmlns="http://www.w3.org/2000/svg">
  <path d="M75 30C50 30 30 50 30 75C30 100 50 120 75 120C100 120 120 100 120 75C120 50 100 30 75 30ZM75 110C55 110 40 95 40 75C40 55 55 40 75 40C95 40 110 55 110 75C110 95 95 110 75 110Z" fill="#1e88e5"/>
  <path d="M60 60C60 60 65 55 75 55C85 55 90 60 90 60C90 60 85 65 75 65C65 65 60 60 60 60Z" fill="#1e88e5"/>
  <path d="M50 75C50 75 55 70 65 70C75 70 80 75 80 75C80 75 75 80 65 80C55 80 50 75 50 75Z" fill="#1e88e5"/>
  <path d="M70 75C70 75 75 70 85 70C95 70 100 75 100 75C100 75 95 80 85 80C75 80 70 75 70 75Z" fill="#1e88e5"/>
</svg> 